<svg width="60" height="60" viewBox="0 0 60 60" fill="none" xmlns="http://www.w3.org/2000/svg">
<g clip-path="url(#clip0_195_1668)">
<path d="M29.7116 3.72457C29.8586 3.72457 29.9942 3.76169 30.1298 3.8345L52.1332 16.6314C52.3916 16.7784 52.5515 17.0497 52.5386 17.3437L52.453 42.8019C52.453 43.0974 52.2931 43.3672 52.0347 43.5142L29.9571 56.1626C29.8343 56.2369 29.6873 56.2726 29.5388 56.2726C29.3903 56.2726 29.2562 56.2355 29.1205 56.1626L7.11858 43.3672C6.86019 43.2202 6.7003 42.9489 6.71315 42.6548L6.79881 17.1967C6.79881 16.9012 6.95869 16.6314 7.21709 16.4843L29.3061 3.82307C29.4289 3.76169 29.5759 3.72457 29.7116 3.72457ZM29.7244 0C28.9378 0 28.1512 0.197007 27.4503 0.602441L5.37265 13.2508C3.95934 14.0631 3.08566 15.5621 3.08566 17.1853L3 42.6434C3 44.2666 3.86083 45.7655 5.2613 46.5893L27.2647 59.3861C27.9656 59.7916 28.7522 60.0014 29.5388 60.0014C30.3254 60.0014 31.112 59.8044 31.813 59.399L53.8906 46.7506C55.3039 45.9397 56.1776 44.4393 56.1776 42.8176L56.2632 17.3594C56.2632 15.7363 55.4024 14.2373 54.0019 13.4136L31.9985 0.615289C31.2976 0.209855 30.511 0 29.7244 0Z" fill="#1B4ADD"/>
<path d="M34.1852 13.8776H30.9646C30.7191 13.8776 30.5092 14.0246 30.4235 14.2587L20.0493 42.6905C19.975 42.8747 20.1235 43.0717 20.3191 43.0717H23.5397C23.7853 43.0717 23.9951 42.9247 24.0808 42.6905L34.455 14.2587C34.5293 14.0746 34.3808 13.8776 34.1852 13.8776ZM28.5434 13.8776H25.3228C25.0772 13.8776 24.8674 14.0246 24.7817 14.2587L14.4189 42.6791C14.3446 42.8633 14.4931 43.0603 14.6887 43.0603H17.9093C18.1549 43.0603 18.3647 42.9132 18.4504 42.6791L28.8132 14.2587C28.8875 14.0746 28.7518 13.8776 28.5434 13.8776ZM32.7234 24.8914C32.6377 24.633 32.268 24.633 32.1823 24.8914L30.5106 29.4882C30.4621 29.611 30.4621 29.758 30.5106 29.8822L35.1817 42.6791C35.2673 42.9004 35.4772 43.0603 35.7227 43.0603H38.9434C39.1404 43.0603 39.2874 42.8633 39.2132 42.6791L32.7234 24.8914ZM44.8436 42.6791L35.5386 17.1596C35.4529 16.9012 35.0832 16.9012 34.9975 17.1596L33.3258 21.7564C33.2773 21.8792 33.2773 22.0262 33.3258 22.1504L40.8121 42.6791C40.8977 42.9004 41.1076 43.0603 41.3531 43.0603H44.5738C44.7822 43.0731 44.9178 42.8633 44.8436 42.6791Z" fill="#1B4ADD"/>
</g>
<defs>
<clipPath id="clip0_195_1668">
<rect width="60" height="60" fill="white"/>
</clipPath>
</defs>
</svg>
