<svg width="60" height="60" viewBox="0 0 60 60" fill="none" xmlns="http://www.w3.org/2000/svg">
<path d="M14.3009 9.19025L30.0893 0L45.8777 9.19025L40.0731 12.5854L30.0893 6.79025L20.1054 12.5854L14.3009 9.19025ZM45.8777 20.7805L40.0731 17.3854L30.0893 23.1805L20.1054 17.3854L14.3009 20.7805V27.5708L24.2847 33.3659V44.9561L30.0893 48.3512L35.8939 44.9561V33.3659L45.8777 27.5708V20.7805ZM45.8777 39.161V32.3708L40.0731 35.7659V42.5561L45.8777 39.161ZM49.999 41.561L40.0152 47.3561V54.1463L55.8036 44.9561V26.5756L49.999 29.9708V41.561ZM44.1944 14.9854L49.999 18.3805V25.1708L55.8036 21.7756V14.9854L49.999 11.5902L44.1944 14.9854ZM24.2847 49.8146V56.6049L30.0893 60L35.8939 56.6049V49.8146L30.0893 53.2097L24.2847 49.8146ZM14.3009 39.161L20.1054 42.5561V35.7659L14.3009 32.3708V39.161ZM24.2847 14.9854L30.0893 18.3805L35.8939 14.9854L30.0893 11.5902L24.2847 14.9854ZM10.1796 18.3805L15.9841 14.9854L10.1796 11.5902L4.375 14.9854V21.7756L10.1796 25.1708V18.3805ZM10.1796 29.9708L4.375 26.5756V44.9561L20.1634 54.1463V47.3561L10.1796 41.561V29.9708Z" fill="#F0B90B"/>
</svg>
