<svg width="60" height="60" viewBox="0 0 60 60" fill="none" xmlns="http://www.w3.org/2000/svg">
<g clip-path="url(#clip0_198_3655)">
<path d="M30 60C46.5685 60 60 46.5685 60 30C60 13.4315 46.5685 0 30 0C13.4315 0 0 13.4315 0 30C0 46.5685 13.4315 60 30 60Z" fill="white"/>
<path fill-rule="evenodd" clip-rule="evenodd" d="M30 60C46.5685 60 60 46.5685 60 30C60 13.4315 46.5685 0 30 0C13.4315 0 0 13.4315 0 30C0 46.5685 13.4315 60 30 60ZM18.7092 38.2404C19.53 38.4988 20.4192 38.628 21.3768 38.628C23.5808 38.628 25.3364 38.1188 26.6436 37.1004C27.9508 36.0668 28.8628 34.5088 29.3796 32.4264C29.5316 31.7728 29.676 31.1192 29.8128 30.4656C29.9648 29.812 30.094 29.1508 30.2004 28.482C30.3828 27.4484 30.3524 26.544 30.1092 25.7688C29.8812 24.9936 29.4784 24.34 28.9008 23.808C28.3384 23.276 27.6468 22.8808 26.826 22.6224C26.0204 22.3488 25.1388 22.212 24.1812 22.212C21.962 22.212 20.1988 22.744 18.8916 23.808C17.5844 24.872 16.68 26.43 16.1784 28.482C16.0264 29.1508 15.8744 29.812 15.7224 30.4656C15.5856 31.1192 15.4564 31.7728 15.3348 32.4264C15.1676 33.46 15.198 34.3644 15.426 35.1396C15.6692 35.9148 16.072 36.5608 16.6344 37.0776C17.1968 37.5944 17.8884 37.982 18.7092 38.2404ZM23.8392 34.6152C23.216 35.1016 22.494 35.3448 21.6732 35.3448C20.8372 35.3448 20.2368 35.1016 19.872 34.6152C19.5072 34.1288 19.416 33.3536 19.5984 32.2896C19.72 31.6208 19.8416 30.99 19.9632 30.3972C20.1 29.8044 20.252 29.1888 20.4192 28.5504C20.6776 27.4864 21.1108 26.7112 21.7188 26.2248C22.342 25.7384 23.064 25.4952 23.8848 25.4952C24.7056 25.4952 25.306 25.7384 25.686 26.2248C26.066 26.7112 26.1572 27.4864 25.9596 28.5504C25.8532 29.1888 25.7316 29.8044 25.5948 30.3972C25.4732 30.99 25.3288 31.6208 25.1616 32.2896C24.9032 33.3536 24.4624 34.1288 23.8392 34.6152ZM30.7685 38.2404C30.8597 38.3468 30.9812 38.4 31.1333 38.4H34.2341C34.4012 38.4 34.5456 38.3468 34.6673 38.2404C34.8041 38.134 34.8876 37.9972 34.9181 37.83L35.9669 32.8368H39.0449C41.0057 32.8368 42.5636 32.4188 43.7189 31.5828C44.8892 30.7468 45.6644 29.4548 46.0445 27.7068C46.2269 26.8252 46.2192 26.0576 46.0217 25.404C45.824 24.7352 45.4745 24.1804 44.9729 23.7396C44.4713 23.2988 43.8404 22.972 43.0805 22.7592C42.3356 22.5464 41.4996 22.44 40.5725 22.44H34.5077C34.3556 22.44 34.2113 22.4932 34.0745 22.5996C33.9377 22.706 33.854 22.8428 33.8237 23.01L30.6773 37.83C30.6468 37.9972 30.6773 38.134 30.7685 38.2404ZM39.1817 29.6904H36.5597L37.4489 25.6092H40.1849C40.7321 25.6092 41.1348 25.7004 41.3933 25.8828C41.6669 26.0652 41.8265 26.3084 41.8721 26.6124C41.9177 26.9164 41.9024 27.266 41.8265 27.6612C41.6744 28.3452 41.3477 28.8544 40.8461 29.1888C40.3596 29.5232 39.8048 29.6904 39.1817 29.6904Z" fill="#FF0420"/>
</g>
<defs>
<clipPath id="clip0_198_3655">
<rect width="60" height="60" fill="white"/>
</clipPath>
</defs>
</svg>
